<?xml version="1.0" standalone="yes"?>
<svg width="1333.3333333333335mm" height="1333.3333333333335mm" viewBox="0 0 1333.3333333333335 1333.3333333333335" xmlns="http://www.w3.org/2000/svg">
 <g>
  
  <rect x="266.67" y="0.00" width="133.33" height="133.33" fill="rgba(0,0,0,1.0)"/>
  <rect x="533.33" y="0.00" width="133.33" height="133.33" fill="rgba(0,0,0,1.0)"/>
  <rect x="933.33" y="0.00" width="133.33" height="133.33" fill="rgba(0,0,0,1.0)"/>
  <rect x="0.00" y="133.33" width="133.33" height="133.33" fill="rgba(0,0,0,1.0)"/>
  <rect x="133.33" y="133.33" width="133.33" height="133.33" fill="rgba(0,0,0,1.0)"/>
  <rect x="266.67" y="133.33" width="133.33" height="133.33" fill="rgba(0,0,0,1.0)"/>
  <rect x="400.00" y="133.33" width="133.33" height="133.33" fill="rgba(0,0,0,1.0)"/>
  <rect x="533.33" y="133.33" width="133.33" height="133.33" fill="rgba(0,0,0,1.0)"/>
  <rect x="666.67" y="133.33" width="133.33" height="133.33" fill="rgba(0,0,0,1.0)"/>
  <rect x="800.00" y="133.33" width="133.33" height="133.33" fill="rgba(0,0,0,1.0)"/>
  <rect x="933.33" y="133.33" width="133.33" height="133.33" fill="rgba(0,0,0,1.0)"/>
  <rect x="1066.67" y="133.33" width="133.33" height="133.33" fill="rgba(0,0,0,1.0)"/>
  <rect x="1200.00" y="133.33" width="133.33" height="133.33" fill="rgba(0,0,0,1.0)"/>
  <rect x="133.33" y="266.67" width="133.33" height="133.33" fill="rgba(0,0,0,1.0)"/>
  <rect x="1066.67" y="266.67" width="133.33" height="133.33" fill="rgba(0,0,0,1.0)"/>
  <rect x="1200.00" y="266.67" width="133.33" height="133.33" fill="rgba(0,0,0,1.0)"/>
  <rect x="133.33" y="400.00" width="133.33" height="133.33" fill="rgba(0,0,0,1.0)"/>
  <rect x="533.33" y="400.00" width="133.33" height="133.33" fill="rgba(0,0,0,1.0)"/>
  <rect x="666.67" y="400.00" width="133.33" height="133.33" fill="rgba(0,0,0,1.0)"/>
  <rect x="1066.67" y="400.00" width="133.33" height="133.33" fill="rgba(0,0,0,1.0)"/>
  <rect x="1200.00" y="400.00" width="133.33" height="133.33" fill="rgba(0,0,0,1.0)"/>
  <rect x="133.33" y="533.33" width="133.33" height="133.33" fill="rgba(0,0,0,1.0)"/>
  <rect x="400.00" y="533.33" width="133.33" height="133.33" fill="rgba(0,0,0,1.0)"/>
  <rect x="1066.67" y="533.33" width="133.33" height="133.33" fill="rgba(0,0,0,1.0)"/>
  <rect x="133.33" y="666.67" width="133.33" height="133.33" fill="rgba(0,0,0,1.0)"/>
  <rect x="400.00" y="666.67" width="133.33" height="133.33" fill="rgba(0,0,0,1.0)"/>
  <rect x="800.00" y="666.67" width="133.33" height="133.33" fill="rgba(0,0,0,1.0)"/>
  <rect x="1066.67" y="666.67" width="133.33" height="133.33" fill="rgba(0,0,0,1.0)"/>
  <rect x="1200.00" y="666.67" width="133.33" height="133.33" fill="rgba(0,0,0,1.0)"/>
  <rect x="133.33" y="800.00" width="133.33" height="133.33" fill="rgba(0,0,0,1.0)"/>
  <rect x="400.00" y="800.00" width="133.33" height="133.33" fill="rgba(0,0,0,1.0)"/>
  <rect x="666.67" y="800.00" width="133.33" height="133.33" fill="rgba(0,0,0,1.0)"/>
  <rect x="1066.67" y="800.00" width="133.33" height="133.33" fill="rgba(0,0,0,1.0)"/>
  <rect x="133.33" y="933.33" width="133.33" height="133.33" fill="rgba(0,0,0,1.0)"/>
  <rect x="1066.67" y="933.33" width="133.33" height="133.33" fill="rgba(0,0,0,1.0)"/>
  <rect x="1200.00" y="933.33" width="133.33" height="133.33" fill="rgba(0,0,0,1.0)"/>
  <rect x="133.33" y="1066.67" width="133.33" height="133.33" fill="rgba(0,0,0,1.0)"/>
  <rect x="266.67" y="1066.67" width="133.33" height="133.33" fill="rgba(0,0,0,1.0)"/>
  <rect x="400.00" y="1066.67" width="133.33" height="133.33" fill="rgba(0,0,0,1.0)"/>
  <rect x="533.33" y="1066.67" width="133.33" height="133.33" fill="rgba(0,0,0,1.0)"/>
  <rect x="666.67" y="1066.67" width="133.33" height="133.33" fill="rgba(0,0,0,1.0)"/>
  <rect x="800.00" y="1066.67" width="133.33" height="133.33" fill="rgba(0,0,0,1.0)"/>
  <rect x="933.33" y="1066.67" width="133.33" height="133.33" fill="rgba(0,0,0,1.0)"/>
  <rect x="1066.67" y="1066.67" width="133.33" height="133.33" fill="rgba(0,0,0,1.0)"/>
  <rect x="266.67" y="1200.00" width="133.33" height="133.33" fill="rgba(0,0,0,1.0)"/>
  <rect x="666.67" y="1200.00" width="133.33" height="133.33" fill="rgba(0,0,0,1.0)"/>
  <rect x="1200.00" y="1200.00" width="133.33" height="133.33" fill="rgba(0,0,0,1.0)"/>
  
  <rect x="554.17" y="554.17" width="225.00" height="225.00" fill="white"/>
  
  <rect x="610.42" y="572.92" width="18.75" height="18.75" fill="rgba(0,0,0,1.0)"/>
  <rect x="647.92" y="572.92" width="18.75" height="18.75" fill="rgba(0,0,0,1.0)"/>
  <rect x="704.17" y="572.92" width="18.75" height="18.75" fill="rgba(0,0,0,1.0)"/>
  <rect x="572.92" y="591.67" width="18.75" height="18.75" fill="rgba(0,0,0,1.0)"/>
  <rect x="591.67" y="591.67" width="18.75" height="18.75" fill="rgba(0,0,0,1.0)"/>
  <rect x="610.42" y="591.67" width="18.75" height="18.75" fill="rgba(0,0,0,1.0)"/>
  <rect x="629.17" y="591.67" width="18.75" height="18.75" fill="rgba(0,0,0,1.0)"/>
  <rect x="647.92" y="591.67" width="18.75" height="18.75" fill="rgba(0,0,0,1.0)"/>
  <rect x="666.67" y="591.67" width="18.75" height="18.75" fill="rgba(0,0,0,1.0)"/>
  <rect x="685.42" y="591.67" width="18.75" height="18.75" fill="rgba(0,0,0,1.0)"/>
  <rect x="704.17" y="591.67" width="18.75" height="18.75" fill="rgba(0,0,0,1.0)"/>
  <rect x="722.92" y="591.67" width="18.75" height="18.75" fill="rgba(0,0,0,1.0)"/>
  <rect x="741.67" y="591.67" width="18.75" height="18.75" fill="rgba(0,0,0,1.0)"/>
  <rect x="591.67" y="610.42" width="18.75" height="18.75" fill="rgba(0,0,0,1.0)"/>
  <rect x="722.92" y="610.42" width="18.75" height="18.75" fill="rgba(0,0,0,1.0)"/>
  <rect x="741.67" y="610.42" width="18.75" height="18.75" fill="rgba(0,0,0,1.0)"/>
  <rect x="591.67" y="629.17" width="18.75" height="18.75" fill="rgba(0,0,0,1.0)"/>
  <rect x="647.92" y="629.17" width="18.75" height="18.75" fill="rgba(0,0,0,1.0)"/>
  <rect x="666.67" y="629.17" width="18.75" height="18.75" fill="rgba(0,0,0,1.0)"/>
  <rect x="685.42" y="629.17" width="18.75" height="18.75" fill="rgba(0,0,0,1.0)"/>
  <rect x="722.92" y="629.17" width="18.75" height="18.75" fill="rgba(0,0,0,1.0)"/>
  <rect x="741.67" y="629.17" width="18.75" height="18.75" fill="rgba(0,0,0,1.0)"/>
  <rect x="572.92" y="647.92" width="18.75" height="18.75" fill="rgba(0,0,0,1.0)"/>
  <rect x="591.67" y="647.92" width="18.75" height="18.75" fill="rgba(0,0,0,1.0)"/>
  <rect x="647.92" y="647.92" width="18.75" height="18.75" fill="rgba(0,0,0,0.0)"/>
  <rect x="666.67" y="647.92" width="18.75" height="18.75" fill="rgba(0,0,0,0.0)"/>
  <rect x="685.42" y="647.92" width="18.75" height="18.75" fill="rgba(0,0,0,1.0)"/>
  <rect x="722.92" y="647.92" width="18.75" height="18.75" fill="rgba(0,0,0,1.0)"/>
  <rect x="591.67" y="666.67" width="18.75" height="18.75" fill="rgba(0,0,0,1.0)"/>
  <rect x="629.17" y="666.67" width="18.75" height="18.75" fill="rgba(0,0,0,1.0)"/>
  <rect x="647.92" y="666.67" width="18.75" height="18.75" fill="rgba(0,0,0,0.0)"/>
  <rect x="666.67" y="666.67" width="18.75" height="18.75" fill="rgba(0,0,0,0.0)"/>
  <rect x="722.92" y="666.67" width="18.75" height="18.75" fill="rgba(0,0,0,1.0)"/>
  <rect x="591.67" y="685.42" width="18.75" height="18.75" fill="rgba(0,0,0,1.0)"/>
  <rect x="647.92" y="685.42" width="18.75" height="18.75" fill="rgba(0,0,0,1.0)"/>
  <rect x="722.92" y="685.42" width="18.75" height="18.75" fill="rgba(0,0,0,1.0)"/>
  <rect x="572.92" y="704.17" width="18.75" height="18.75" fill="rgba(0,0,0,1.0)"/>
  <rect x="591.67" y="704.17" width="18.75" height="18.75" fill="rgba(0,0,0,1.0)"/>
  <rect x="722.92" y="704.17" width="18.75" height="18.75" fill="rgba(0,0,0,1.0)"/>
  <rect x="741.67" y="704.17" width="18.75" height="18.75" fill="rgba(0,0,0,1.0)"/>
  <rect x="591.67" y="722.92" width="18.75" height="18.75" fill="rgba(0,0,0,1.0)"/>
  <rect x="610.42" y="722.92" width="18.75" height="18.75" fill="rgba(0,0,0,1.0)"/>
  <rect x="629.17" y="722.92" width="18.75" height="18.75" fill="rgba(0,0,0,1.0)"/>
  <rect x="647.92" y="722.92" width="18.75" height="18.75" fill="rgba(0,0,0,1.0)"/>
  <rect x="666.67" y="722.92" width="18.75" height="18.75" fill="rgba(0,0,0,1.0)"/>
  <rect x="685.42" y="722.92" width="18.75" height="18.75" fill="rgba(0,0,0,1.0)"/>
  <rect x="704.17" y="722.92" width="18.75" height="18.75" fill="rgba(0,0,0,1.0)"/>
  <rect x="722.92" y="722.92" width="18.75" height="18.75" fill="rgba(0,0,0,1.0)"/>
  <rect x="572.92" y="741.67" width="18.75" height="18.75" fill="rgba(0,0,0,1.0)"/>
  <rect x="629.17" y="741.67" width="18.75" height="18.75" fill="rgba(0,0,0,1.0)"/>
  <rect x="666.67" y="741.67" width="18.75" height="18.75" fill="rgba(0,0,0,1.0)"/>
  <rect x="685.42" y="741.67" width="18.75" height="18.75" fill="rgba(0,0,0,1.0)"/>
  <rect x="704.17" y="741.67" width="18.75" height="18.75" fill="rgba(0,0,0,1.0)"/>
  <rect x="722.92" y="741.67" width="18.75" height="18.75" fill="rgba(0,0,0,1.0)"/>
  <rect x="741.67" y="741.67" width="18.75" height="18.75" fill="rgba(0,0,0,1.0)"/>
 </g>
</svg>
